<?xml version="1.0" ?><svg id="katman_1" style="enable-background:new 0 0 512 512;" version="1.1" viewBox="0 0 512 512" xml:space="preserve" xmlns="http://www.w3.org/2000/svg" xmlns:xlink="http://www.w3.org/1999/xlink"><style type="text/css">
	.st0{fill:#905AA1;}
	.st1{fill:#7F4997;}
	.st2{fill:#FFFFFF;}
</style><g><g><circle class="st0" cx="256" cy="256" r="250"/></g><path class="st1" d="M505.4,272.6c-0.3-0.4-0.6-0.8-1-1.2c-33.6-33.5-67.1-67.1-100.7-100.6c-0.5-0.5-1-1-1.5-1.5   c-1.8-1.7-3.8-3-6.2-3.4c-2-0.4-4.1-0.5-6.2-0.5c-67.8,0-135.5,0-203.3,0c-1.8,0-3.1-0.5-4.4-1.8c-9.1-9.2-18.3-18.3-27.5-27.5   c-1.8-1.8-3.8-3.2-6.1-4.2c-6.2-2.6-12.3-5.3-18.5-8c-4.3-1.9-8.6-3.8-13-5.6c-5.4-2.2-10.8,1.6-10.5,7.3c0.1,2.3,1.3,4,2.9,5.6   c12.5,12.4,24.9,24.9,37.4,37.3c1,0.9,1.5,1.9,1.8,3.3c0.7,3.5,1.4,7,2.1,10.6c4.5,22.1,9.1,44.1,13.6,66.2c4.7,23,9.5,46,14.2,69   c0.8,3.8,2.4,7,5.2,9.8c8.4,8.3,16.6,16.6,25,24.9c0.6,0.6,1.2,1.2,1.7,1.9c-2.7,4.2-4.2,8.5-4.5,13.2c-0.4,8.2,2.4,15.1,8.3,21   c35.9,35.8,71.7,71.7,107.6,107.6c0.3,0.3,0.6,0.8,0.9,1.2C423.4,469.1,498.4,380.1,505.4,272.6z"/><g><path class="st2" d="M231.8,342c-14.5,0-26.4,11.8-26.4,26.4s11.8,26.4,26.4,26.4c14.5,0,26.4-11.8,26.4-26.4S246.3,342,231.8,342    z M231.8,380.1c-6.4,0-11.7-5.2-11.7-11.7s5.2-11.7,11.7-11.7s11.7,5.2,11.7,11.7C243.4,374.8,238.2,380.1,231.8,380.1z"/><path class="st2" d="M324.3,342c-14.5,0-26.4,11.8-26.4,26.4s11.8,26.4,26.4,26.4s26.4-11.8,26.4-26.4    C350.7,353.9,338.9,342,324.3,342z M324.3,380.1c-6.4,0-11.7-5.2-11.7-11.7s5.2-11.7,11.7-11.7c6.4,0,11.7,5.2,11.7,11.7    C336,374.8,330.8,380.1,324.3,380.1z"/><path class="st2" d="M225.3,217.9h105.6c4.1,0,7.4-3.3,7.4-7.4c0-4.1-3.3-7.4-7.4-7.4H225.3c-4.1,0-7.4,3.3-7.4,7.4    C217.9,214.6,221.2,217.9,225.3,217.9z"/><path class="st2" d="M325.1,241.4H231c-4.1,0-7.4,3.3-7.4,7.4c0,4.1,3.3,7.4,7.4,7.4h94.1c4.1,0,7.4-3.3,7.4-7.4    C332.5,244.7,329.2,241.4,325.1,241.4z"/><path class="st2" d="M402.7,170.3c-2.8-3.4-7-5.4-11.4-5.4H161.8l-4.6-22.5c-1-4.7-4.2-8.6-8.6-10.5l-32.3-14    c-3.7-1.6-8.1,0.1-9.7,3.8c-1.6,3.7,0.1,8.1,3.8,9.7l32.3,14l35.6,173c1.4,6.8,7.5,11.8,14.4,11.8h176.5c4.1,0,7.4-3.3,7.4-7.4    c0-4.1-3.3-7.4-7.4-7.4H192.8l-4.3-21h182.2c7,0,13-4.9,14.4-11.8l20.6-100C406.6,178.2,405.5,173.8,402.7,170.3z M370.7,279.6    H185.5l-20.6-100l226.4,0L370.7,279.6z"/></g></g></svg>